<?xml version="1.0" encoding="utf-8" standalone="no"?>
<!DOCTYPE svg PUBLIC "-//W3C//DTD SVG 1.1//EN"
  "http://www.w3.org/Graphics/SVG/1.1/DTD/svg11.dtd">
<svg xmlns:xlink="http://www.w3.org/1999/xlink" width="701.37pt" height="360pt" viewBox="0 0 701.37 360" xmlns="http://www.w3.org/2000/svg" version="1.1">
 <metadata>
  <rdf:RDF xmlns:dc="http://purl.org/dc/elements/1.1/" xmlns:cc="http://creativecommons.org/ns#" xmlns:rdf="http://www.w3.org/1999/02/22-rdf-syntax-ns#">
   <cc:Work>
    <dc:type rdf:resource="http://purl.org/dc/dcmitype/StillImage"/>
    <dc:format>image/svg+xml</dc:format>
    <dc:creator>
     <cc:Agent>
      <dc:title>Matplotlib v3.7.1, https://matplotlib.org/</dc:title>
     </cc:Agent>
    </dc:creator>
   </cc:Work>
  </rdf:RDF>
 </metadata>
 <defs>
  <style type="text/css">*{stroke-linejoin: round; stroke-linecap: butt}</style>
 </defs>
 <g id="figure_1">
  <g id="patch_1">
   <path d="M 0 360 
L 701.37 360 
L 701.37 0 
L 0 0 
z
" style="fill: #ffffff"/>
  </g>
  <g id="axes_1">
   <g id="patch_2">
    <path d="M 72.358005 312.66 
L 532.9863 312.66 
L 532.9863 12.96 
L 72.358005 12.96 
z
" style="fill: #ffffff"/>
   </g>
   <g id="matplotlib.axis_1">
    <g id="xtick_1">
     <g id="line2d_1">
      <path d="M 78.775802 312.66 
L 78.775802 12.96 
" clip-path="url(#p820448b38d)" style="fill: none; stroke: #cccccc; stroke-linecap: round"/>
     </g>
     <g id="text_1">
      <!-- 5000 -->
      <g style="fill: #262626" transform="translate(66.541739 330.033594) scale(0.11 -0.11)">
       <defs>
        <path id="ArialMT-35" d="M 266 1200 
L 856 1250 
Q 922 819 1161 601 
Q 1400 384 1738 384 
Q 2144 384 2425 690 
Q 2706 997 2706 1503 
Q 2706 1984 2436 2262 
Q 2166 2541 1728 2541 
Q 1456 2541 1237 2417 
Q 1019 2294 894 2097 
L 366 2166 
L 809 4519 
L 3088 4519 
L 3088 3981 
L 1259 3981 
L 1013 2750 
Q 1425 3038 1878 3038 
Q 2478 3038 2890 2622 
Q 3303 2206 3303 1553 
Q 3303 931 2941 478 
Q 2500 -78 1738 -78 
Q 1113 -78 717 272 
Q 322 622 266 1200 
z
" transform="scale(0.015625)"/>
        <path id="ArialMT-30" d="M 266 2259 
Q 266 3072 433 3567 
Q 600 4063 929 4331 
Q 1259 4600 1759 4600 
Q 2128 4600 2406 4451 
Q 2684 4303 2865 4023 
Q 3047 3744 3150 3342 
Q 3253 2941 3253 2259 
Q 3253 1453 3087 958 
Q 2922 463 2592 192 
Q 2263 -78 1759 -78 
Q 1097 -78 719 397 
Q 266 969 266 2259 
z
M 844 2259 
Q 844 1131 1108 757 
Q 1372 384 1759 384 
Q 2147 384 2411 759 
Q 2675 1134 2675 2259 
Q 2675 3391 2411 3762 
Q 2147 4134 1753 4134 
Q 1366 4134 1134 3806 
Q 844 3388 844 2259 
z
" transform="scale(0.015625)"/>
       </defs>
       <use xlink:href="#ArialMT-35"/>
       <use xlink:href="#ArialMT-30" x="55.615234"/>
       <use xlink:href="#ArialMT-30" x="111.230469"/>
       <use xlink:href="#ArialMT-30" x="166.845703"/>
      </g>
     </g>
    </g>
    <g id="xtick_2">
     <g id="line2d_2">
      <path d="M 138.671244 312.66 
L 138.671244 12.96 
" clip-path="url(#p820448b38d)" style="fill: none; stroke: #cccccc; stroke-linecap: round"/>
     </g>
     <g id="text_2">
      <!-- 6000 -->
      <g style="fill: #262626" transform="translate(126.437181 330.033594) scale(0.11 -0.11)">
       <defs>
        <path id="ArialMT-36" d="M 3184 3459 
L 2625 3416 
Q 2550 3747 2413 3897 
Q 2184 4138 1850 4138 
Q 1581 4138 1378 3988 
Q 1113 3794 959 3422 
Q 806 3050 800 2363 
Q 1003 2672 1297 2822 
Q 1591 2972 1913 2972 
Q 2475 2972 2870 2558 
Q 3266 2144 3266 1488 
Q 3266 1056 3080 686 
Q 2894 316 2569 119 
Q 2244 -78 1831 -78 
Q 1128 -78 684 439 
Q 241 956 241 2144 
Q 241 3472 731 4075 
Q 1159 4600 1884 4600 
Q 2425 4600 2770 4297 
Q 3116 3994 3184 3459 
z
M 888 1484 
Q 888 1194 1011 928 
Q 1134 663 1356 523 
Q 1578 384 1822 384 
Q 2178 384 2434 671 
Q 2691 959 2691 1453 
Q 2691 1928 2437 2201 
Q 2184 2475 1800 2475 
Q 1419 2475 1153 2201 
Q 888 1928 888 1484 
z
" transform="scale(0.015625)"/>
       </defs>
       <use xlink:href="#ArialMT-36"/>
       <use xlink:href="#ArialMT-30" x="55.615234"/>
       <use xlink:href="#ArialMT-30" x="111.230469"/>
       <use xlink:href="#ArialMT-30" x="166.845703"/>
      </g>
     </g>
    </g>
    <g id="xtick_3">
     <g id="line2d_3">
      <path d="M 198.566686 312.66 
L 198.566686 12.96 
" clip-path="url(#p820448b38d)" style="fill: none; stroke: #cccccc; stroke-linecap: round"/>
     </g>
     <g id="text_3">
      <!-- 7000 -->
      <g style="fill: #262626" transform="translate(186.332624 330.033594) scale(0.11 -0.11)">
       <defs>
        <path id="ArialMT-37" d="M 303 3981 
L 303 4522 
L 3269 4522 
L 3269 4084 
Q 2831 3619 2401 2847 
Q 1972 2075 1738 1259 
Q 1569 684 1522 0 
L 944 0 
Q 953 541 1156 1306 
Q 1359 2072 1739 2783 
Q 2119 3494 2547 3981 
L 303 3981 
z
" transform="scale(0.015625)"/>
       </defs>
       <use xlink:href="#ArialMT-37"/>
       <use xlink:href="#ArialMT-30" x="55.615234"/>
       <use xlink:href="#ArialMT-30" x="111.230469"/>
       <use xlink:href="#ArialMT-30" x="166.845703"/>
      </g>
     </g>
    </g>
    <g id="xtick_4">
     <g id="line2d_4">
      <path d="M 258.462129 312.66 
L 258.462129 12.96 
" clip-path="url(#p820448b38d)" style="fill: none; stroke: #cccccc; stroke-linecap: round"/>
     </g>
     <g id="text_4">
      <!-- 8000 -->
      <g style="fill: #262626" transform="translate(246.228066 330.033594) scale(0.11 -0.11)">
       <defs>
        <path id="ArialMT-38" d="M 1131 2484 
Q 781 2613 612 2850 
Q 444 3088 444 3419 
Q 444 3919 803 4259 
Q 1163 4600 1759 4600 
Q 2359 4600 2725 4251 
Q 3091 3903 3091 3403 
Q 3091 3084 2923 2848 
Q 2756 2613 2416 2484 
Q 2838 2347 3058 2040 
Q 3278 1734 3278 1309 
Q 3278 722 2862 322 
Q 2447 -78 1769 -78 
Q 1091 -78 675 323 
Q 259 725 259 1325 
Q 259 1772 486 2073 
Q 713 2375 1131 2484 
z
M 1019 3438 
Q 1019 3113 1228 2906 
Q 1438 2700 1772 2700 
Q 2097 2700 2305 2904 
Q 2513 3109 2513 3406 
Q 2513 3716 2298 3927 
Q 2084 4138 1766 4138 
Q 1444 4138 1231 3931 
Q 1019 3725 1019 3438 
z
M 838 1322 
Q 838 1081 952 856 
Q 1066 631 1291 507 
Q 1516 384 1775 384 
Q 2178 384 2440 643 
Q 2703 903 2703 1303 
Q 2703 1709 2433 1975 
Q 2163 2241 1756 2241 
Q 1359 2241 1098 1978 
Q 838 1716 838 1322 
z
" transform="scale(0.015625)"/>
       </defs>
       <use xlink:href="#ArialMT-38"/>
       <use xlink:href="#ArialMT-30" x="55.615234"/>
       <use xlink:href="#ArialMT-30" x="111.230469"/>
       <use xlink:href="#ArialMT-30" x="166.845703"/>
      </g>
     </g>
    </g>
    <g id="xtick_5">
     <g id="line2d_5">
      <path d="M 318.357571 312.66 
L 318.357571 12.96 
" clip-path="url(#p820448b38d)" style="fill: none; stroke: #cccccc; stroke-linecap: round"/>
     </g>
     <g id="text_5">
      <!-- 9000 -->
      <g style="fill: #262626" transform="translate(306.123508 330.033594) scale(0.11 -0.11)">
       <defs>
        <path id="ArialMT-39" d="M 350 1059 
L 891 1109 
Q 959 728 1153 556 
Q 1347 384 1650 384 
Q 1909 384 2104 503 
Q 2300 622 2425 820 
Q 2550 1019 2634 1356 
Q 2719 1694 2719 2044 
Q 2719 2081 2716 2156 
Q 2547 1888 2255 1720 
Q 1963 1553 1622 1553 
Q 1053 1553 659 1965 
Q 266 2378 266 3053 
Q 266 3750 677 4175 
Q 1088 4600 1706 4600 
Q 2153 4600 2523 4359 
Q 2894 4119 3086 3673 
Q 3278 3228 3278 2384 
Q 3278 1506 3087 986 
Q 2897 466 2520 194 
Q 2144 -78 1638 -78 
Q 1100 -78 759 220 
Q 419 519 350 1059 
z
M 2653 3081 
Q 2653 3566 2395 3850 
Q 2138 4134 1775 4134 
Q 1400 4134 1122 3828 
Q 844 3522 844 3034 
Q 844 2597 1108 2323 
Q 1372 2050 1759 2050 
Q 2150 2050 2401 2323 
Q 2653 2597 2653 3081 
z
" transform="scale(0.015625)"/>
       </defs>
       <use xlink:href="#ArialMT-39"/>
       <use xlink:href="#ArialMT-30" x="55.615234"/>
       <use xlink:href="#ArialMT-30" x="111.230469"/>
       <use xlink:href="#ArialMT-30" x="166.845703"/>
      </g>
     </g>
    </g>
    <g id="xtick_6">
     <g id="line2d_6">
      <path d="M 378.253013 312.66 
L 378.253013 12.96 
" clip-path="url(#p820448b38d)" style="fill: none; stroke: #cccccc; stroke-linecap: round"/>
     </g>
     <g id="text_6">
      <!-- 10000 -->
      <g style="fill: #262626" transform="translate(362.960435 330.033594) scale(0.11 -0.11)">
       <defs>
        <path id="ArialMT-31" d="M 2384 0 
L 1822 0 
L 1822 3584 
Q 1619 3391 1289 3197 
Q 959 3003 697 2906 
L 697 3450 
Q 1169 3672 1522 3987 
Q 1875 4303 2022 4600 
L 2384 4600 
L 2384 0 
z
" transform="scale(0.015625)"/>
       </defs>
       <use xlink:href="#ArialMT-31"/>
       <use xlink:href="#ArialMT-30" x="55.615234"/>
       <use xlink:href="#ArialMT-30" x="111.230469"/>
       <use xlink:href="#ArialMT-30" x="166.845703"/>
       <use xlink:href="#ArialMT-30" x="222.460938"/>
      </g>
     </g>
    </g>
    <g id="xtick_7">
     <g id="line2d_7">
      <path d="M 438.148456 312.66 
L 438.148456 12.96 
" clip-path="url(#p820448b38d)" style="fill: none; stroke: #cccccc; stroke-linecap: round"/>
     </g>
     <g id="text_7">
      <!-- 11000 -->
      <g style="fill: #262626" transform="translate(423.261502 330.033594) scale(0.11 -0.11)">
       <use xlink:href="#ArialMT-31"/>
       <use xlink:href="#ArialMT-31" x="48.240234"/>
       <use xlink:href="#ArialMT-30" x="103.855469"/>
       <use xlink:href="#ArialMT-30" x="159.470703"/>
       <use xlink:href="#ArialMT-30" x="215.085938"/>
      </g>
     </g>
    </g>
    <g id="xtick_8">
     <g id="line2d_8">
      <path d="M 498.043898 312.66 
L 498.043898 12.96 
" clip-path="url(#p820448b38d)" style="fill: none; stroke: #cccccc; stroke-linecap: round"/>
     </g>
     <g id="text_8">
      <!-- 12000 -->
      <g style="fill: #262626" transform="translate(482.75132 330.033594) scale(0.11 -0.11)">
       <defs>
        <path id="ArialMT-32" d="M 3222 541 
L 3222 0 
L 194 0 
Q 188 203 259 391 
Q 375 700 629 1000 
Q 884 1300 1366 1694 
Q 2113 2306 2375 2664 
Q 2638 3022 2638 3341 
Q 2638 3675 2398 3904 
Q 2159 4134 1775 4134 
Q 1369 4134 1125 3890 
Q 881 3647 878 3216 
L 300 3275 
Q 359 3922 746 4261 
Q 1134 4600 1788 4600 
Q 2447 4600 2831 4234 
Q 3216 3869 3216 3328 
Q 3216 3053 3103 2787 
Q 2991 2522 2730 2228 
Q 2469 1934 1863 1422 
Q 1356 997 1212 845 
Q 1069 694 975 541 
L 3222 541 
z
" transform="scale(0.015625)"/>
       </defs>
       <use xlink:href="#ArialMT-31"/>
       <use xlink:href="#ArialMT-32" x="55.615234"/>
       <use xlink:href="#ArialMT-30" x="111.230469"/>
       <use xlink:href="#ArialMT-30" x="166.845703"/>
       <use xlink:href="#ArialMT-30" x="222.460938"/>
      </g>
     </g>
    </g>
    <g id="text_9">
     <!-- Power Consumption, Joules -->
     <g style="fill: #262626" transform="translate(227.972153 344.955469) scale(0.12 -0.12)">
      <defs>
       <path id="ArialMT-50" d="M 494 0 
L 494 4581 
L 2222 4581 
Q 2678 4581 2919 4538 
Q 3256 4481 3484 4323 
Q 3713 4166 3852 3881 
Q 3991 3597 3991 3256 
Q 3991 2672 3619 2267 
Q 3247 1863 2275 1863 
L 1100 1863 
L 1100 0 
L 494 0 
z
M 1100 2403 
L 2284 2403 
Q 2872 2403 3119 2622 
Q 3366 2841 3366 3238 
Q 3366 3525 3220 3729 
Q 3075 3934 2838 4000 
Q 2684 4041 2272 4041 
L 1100 4041 
L 1100 2403 
z
" transform="scale(0.015625)"/>
       <path id="ArialMT-6f" d="M 213 1659 
Q 213 2581 725 3025 
Q 1153 3394 1769 3394 
Q 2453 3394 2887 2945 
Q 3322 2497 3322 1706 
Q 3322 1066 3130 698 
Q 2938 331 2570 128 
Q 2203 -75 1769 -75 
Q 1072 -75 642 372 
Q 213 819 213 1659 
z
M 791 1659 
Q 791 1022 1069 705 
Q 1347 388 1769 388 
Q 2188 388 2466 706 
Q 2744 1025 2744 1678 
Q 2744 2294 2464 2611 
Q 2184 2928 1769 2928 
Q 1347 2928 1069 2612 
Q 791 2297 791 1659 
z
" transform="scale(0.015625)"/>
       <path id="ArialMT-77" d="M 1034 0 
L 19 3319 
L 600 3319 
L 1128 1403 
L 1325 691 
Q 1338 744 1497 1375 
L 2025 3319 
L 2603 3319 
L 3100 1394 
L 3266 759 
L 3456 1400 
L 4025 3319 
L 4572 3319 
L 3534 0 
L 2950 0 
L 2422 1988 
L 2294 2553 
L 1622 0 
L 1034 0 
z
" transform="scale(0.015625)"/>
       <path id="ArialMT-65" d="M 2694 1069 
L 3275 997 
Q 3138 488 2766 206 
Q 2394 -75 1816 -75 
Q 1088 -75 661 373 
Q 234 822 234 1631 
Q 234 2469 665 2931 
Q 1097 3394 1784 3394 
Q 2450 3394 2872 2941 
Q 3294 2488 3294 1666 
Q 3294 1616 3291 1516 
L 816 1516 
Q 847 969 1125 678 
Q 1403 388 1819 388 
Q 2128 388 2347 550 
Q 2566 713 2694 1069 
z
M 847 1978 
L 2700 1978 
Q 2663 2397 2488 2606 
Q 2219 2931 1791 2931 
Q 1403 2931 1139 2672 
Q 875 2413 847 1978 
z
" transform="scale(0.015625)"/>
       <path id="ArialMT-72" d="M 416 0 
L 416 3319 
L 922 3319 
L 922 2816 
Q 1116 3169 1280 3281 
Q 1444 3394 1641 3394 
Q 1925 3394 2219 3213 
L 2025 2691 
Q 1819 2813 1613 2813 
Q 1428 2813 1281 2702 
Q 1134 2591 1072 2394 
Q 978 2094 978 1738 
L 978 0 
L 416 0 
z
" transform="scale(0.015625)"/>
       <path id="ArialMT-20" transform="scale(0.015625)"/>
       <path id="ArialMT-43" d="M 3763 1606 
L 4369 1453 
Q 4178 706 3683 314 
Q 3188 -78 2472 -78 
Q 1731 -78 1267 223 
Q 803 525 561 1097 
Q 319 1669 319 2325 
Q 319 3041 592 3573 
Q 866 4106 1370 4382 
Q 1875 4659 2481 4659 
Q 3169 4659 3637 4309 
Q 4106 3959 4291 3325 
L 3694 3184 
Q 3534 3684 3231 3912 
Q 2928 4141 2469 4141 
Q 1941 4141 1586 3887 
Q 1231 3634 1087 3207 
Q 944 2781 944 2328 
Q 944 1744 1114 1308 
Q 1284 872 1643 656 
Q 2003 441 2422 441 
Q 2931 441 3284 734 
Q 3638 1028 3763 1606 
z
" transform="scale(0.015625)"/>
       <path id="ArialMT-6e" d="M 422 0 
L 422 3319 
L 928 3319 
L 928 2847 
Q 1294 3394 1984 3394 
Q 2284 3394 2536 3286 
Q 2788 3178 2913 3003 
Q 3038 2828 3088 2588 
Q 3119 2431 3119 2041 
L 3119 0 
L 2556 0 
L 2556 2019 
Q 2556 2363 2490 2533 
Q 2425 2703 2258 2804 
Q 2091 2906 1866 2906 
Q 1506 2906 1245 2678 
Q 984 2450 984 1813 
L 984 0 
L 422 0 
z
" transform="scale(0.015625)"/>
       <path id="ArialMT-73" d="M 197 991 
L 753 1078 
Q 800 744 1014 566 
Q 1228 388 1613 388 
Q 2000 388 2187 545 
Q 2375 703 2375 916 
Q 2375 1106 2209 1216 
Q 2094 1291 1634 1406 
Q 1016 1563 777 1677 
Q 538 1791 414 1992 
Q 291 2194 291 2438 
Q 291 2659 392 2848 
Q 494 3038 669 3163 
Q 800 3259 1026 3326 
Q 1253 3394 1513 3394 
Q 1903 3394 2198 3281 
Q 2494 3169 2634 2976 
Q 2775 2784 2828 2463 
L 2278 2388 
Q 2241 2644 2061 2787 
Q 1881 2931 1553 2931 
Q 1166 2931 1000 2803 
Q 834 2675 834 2503 
Q 834 2394 903 2306 
Q 972 2216 1119 2156 
Q 1203 2125 1616 2013 
Q 2213 1853 2448 1751 
Q 2684 1650 2818 1456 
Q 2953 1263 2953 975 
Q 2953 694 2789 445 
Q 2625 197 2315 61 
Q 2006 -75 1616 -75 
Q 969 -75 630 194 
Q 291 463 197 991 
z
" transform="scale(0.015625)"/>
       <path id="ArialMT-75" d="M 2597 0 
L 2597 488 
Q 2209 -75 1544 -75 
Q 1250 -75 995 37 
Q 741 150 617 320 
Q 494 491 444 738 
Q 409 903 409 1263 
L 409 3319 
L 972 3319 
L 972 1478 
Q 972 1038 1006 884 
Q 1059 663 1231 536 
Q 1403 409 1656 409 
Q 1909 409 2131 539 
Q 2353 669 2445 892 
Q 2538 1116 2538 1541 
L 2538 3319 
L 3100 3319 
L 3100 0 
L 2597 0 
z
" transform="scale(0.015625)"/>
       <path id="ArialMT-6d" d="M 422 0 
L 422 3319 
L 925 3319 
L 925 2853 
Q 1081 3097 1340 3245 
Q 1600 3394 1931 3394 
Q 2300 3394 2536 3241 
Q 2772 3088 2869 2813 
Q 3263 3394 3894 3394 
Q 4388 3394 4653 3120 
Q 4919 2847 4919 2278 
L 4919 0 
L 4359 0 
L 4359 2091 
Q 4359 2428 4304 2576 
Q 4250 2725 4106 2815 
Q 3963 2906 3769 2906 
Q 3419 2906 3187 2673 
Q 2956 2441 2956 1928 
L 2956 0 
L 2394 0 
L 2394 2156 
Q 2394 2531 2256 2718 
Q 2119 2906 1806 2906 
Q 1569 2906 1367 2781 
Q 1166 2656 1075 2415 
Q 984 2175 984 1722 
L 984 0 
L 422 0 
z
" transform="scale(0.015625)"/>
       <path id="ArialMT-70" d="M 422 -1272 
L 422 3319 
L 934 3319 
L 934 2888 
Q 1116 3141 1344 3267 
Q 1572 3394 1897 3394 
Q 2322 3394 2647 3175 
Q 2972 2956 3137 2557 
Q 3303 2159 3303 1684 
Q 3303 1175 3120 767 
Q 2938 359 2589 142 
Q 2241 -75 1856 -75 
Q 1575 -75 1351 44 
Q 1128 163 984 344 
L 984 -1272 
L 422 -1272 
z
M 931 1641 
Q 931 1000 1190 694 
Q 1450 388 1819 388 
Q 2194 388 2461 705 
Q 2728 1022 2728 1688 
Q 2728 2322 2467 2637 
Q 2206 2953 1844 2953 
Q 1484 2953 1207 2617 
Q 931 2281 931 1641 
z
" transform="scale(0.015625)"/>
       <path id="ArialMT-74" d="M 1650 503 
L 1731 6 
Q 1494 -44 1306 -44 
Q 1000 -44 831 53 
Q 663 150 594 308 
Q 525 466 525 972 
L 525 2881 
L 113 2881 
L 113 3319 
L 525 3319 
L 525 4141 
L 1084 4478 
L 1084 3319 
L 1650 3319 
L 1650 2881 
L 1084 2881 
L 1084 941 
Q 1084 700 1114 631 
Q 1144 563 1211 522 
Q 1278 481 1403 481 
Q 1497 481 1650 503 
z
" transform="scale(0.015625)"/>
       <path id="ArialMT-69" d="M 425 3934 
L 425 4581 
L 988 4581 
L 988 3934 
L 425 3934 
z
M 425 0 
L 425 3319 
L 988 3319 
L 988 0 
L 425 0 
z
" transform="scale(0.015625)"/>
       <path id="ArialMT-2c" d="M 569 0 
L 569 641 
L 1209 641 
L 1209 0 
Q 1209 -353 1084 -570 
Q 959 -788 688 -906 
L 531 -666 
Q 709 -588 793 -436 
Q 878 -284 888 0 
L 569 0 
z
" transform="scale(0.015625)"/>
       <path id="ArialMT-4a" d="M 184 1300 
L 731 1375 
Q 753 850 928 656 
Q 1103 463 1413 463 
Q 1641 463 1806 567 
Q 1972 672 2034 851 
Q 2097 1031 2097 1425 
L 2097 4581 
L 2703 4581 
L 2703 1459 
Q 2703 884 2564 568 
Q 2425 253 2123 87 
Q 1822 -78 1416 -78 
Q 813 -78 492 269 
Q 172 616 184 1300 
z
" transform="scale(0.015625)"/>
       <path id="ArialMT-6c" d="M 409 0 
L 409 4581 
L 972 4581 
L 972 0 
L 409 0 
z
" transform="scale(0.015625)"/>
      </defs>
      <use xlink:href="#ArialMT-50"/>
      <use xlink:href="#ArialMT-6f" x="66.699219"/>
      <use xlink:href="#ArialMT-77" x="122.314453"/>
      <use xlink:href="#ArialMT-65" x="194.53125"/>
      <use xlink:href="#ArialMT-72" x="250.146484"/>
      <use xlink:href="#ArialMT-20" x="283.447266"/>
      <use xlink:href="#ArialMT-43" x="311.230469"/>
      <use xlink:href="#ArialMT-6f" x="383.447266"/>
      <use xlink:href="#ArialMT-6e" x="439.0625"/>
      <use xlink:href="#ArialMT-73" x="494.677734"/>
      <use xlink:href="#ArialMT-75" x="544.677734"/>
      <use xlink:href="#ArialMT-6d" x="600.292969"/>
      <use xlink:href="#ArialMT-70" x="683.59375"/>
      <use xlink:href="#ArialMT-74" x="739.208984"/>
      <use xlink:href="#ArialMT-69" x="766.992188"/>
      <use xlink:href="#ArialMT-6f" x="789.208984"/>
      <use xlink:href="#ArialMT-6e" x="844.824219"/>
      <use xlink:href="#ArialMT-2c" x="900.439453"/>
      <use xlink:href="#ArialMT-20" x="928.222656"/>
      <use xlink:href="#ArialMT-4a" x="956.005859"/>
      <use xlink:href="#ArialMT-6f" x="1006.005859"/>
      <use xlink:href="#ArialMT-75" x="1061.621094"/>
      <use xlink:href="#ArialMT-6c" x="1117.236328"/>
      <use xlink:href="#ArialMT-65" x="1139.453125"/>
      <use xlink:href="#ArialMT-73" x="1195.068359"/>
     </g>
    </g>
   </g>
   <g id="matplotlib.axis_2">
    <g id="ytick_1">
     <g id="line2d_9">
      <path d="M 72.358005 308.078472 
L 532.9863 308.078472 
" clip-path="url(#p820448b38d)" style="fill: none; stroke: #cccccc; stroke-linecap: round"/>
     </g>
     <g id="text_10">
      <!-- 80 -->
      <g style="fill: #262626" transform="translate(50.623943 312.015269) scale(0.11 -0.11)">
       <use xlink:href="#ArialMT-38"/>
       <use xlink:href="#ArialMT-30" x="55.615234"/>
      </g>
     </g>
    </g>
    <g id="ytick_2">
     <g id="line2d_10">
      <path d="M 72.358005 272.448129 
L 532.9863 272.448129 
" clip-path="url(#p820448b38d)" style="fill: none; stroke: #cccccc; stroke-linecap: round"/>
     </g>
     <g id="text_11">
      <!-- 90 -->
      <g style="fill: #262626" transform="translate(50.623943 276.384926) scale(0.11 -0.11)">
       <use xlink:href="#ArialMT-39"/>
       <use xlink:href="#ArialMT-30" x="55.615234"/>
      </g>
     </g>
    </g>
    <g id="ytick_3">
     <g id="line2d_11">
      <path d="M 72.358005 236.817786 
L 532.9863 236.817786 
" clip-path="url(#p820448b38d)" style="fill: none; stroke: #cccccc; stroke-linecap: round"/>
     </g>
     <g id="text_12">
      <!-- 100 -->
      <g style="fill: #262626" transform="translate(44.506911 240.754583) scale(0.11 -0.11)">
       <use xlink:href="#ArialMT-31"/>
       <use xlink:href="#ArialMT-30" x="55.615234"/>
       <use xlink:href="#ArialMT-30" x="111.230469"/>
      </g>
     </g>
    </g>
    <g id="ytick_4">
     <g id="line2d_12">
      <path d="M 72.358005 201.187443 
L 532.9863 201.187443 
" clip-path="url(#p820448b38d)" style="fill: none; stroke: #cccccc; stroke-linecap: round"/>
     </g>
     <g id="text_13">
      <!-- 110 -->
      <g style="fill: #262626" transform="translate(45.318161 205.12424) scale(0.11 -0.11)">
       <use xlink:href="#ArialMT-31"/>
       <use xlink:href="#ArialMT-31" x="48.240234"/>
       <use xlink:href="#ArialMT-30" x="103.855469"/>
      </g>
     </g>
    </g>
    <g id="ytick_5">
     <g id="line2d_13">
      <path d="M 72.358005 165.557099 
L 532.9863 165.557099 
" clip-path="url(#p820448b38d)" style="fill: none; stroke: #cccccc; stroke-linecap: round"/>
     </g>
     <g id="text_14">
      <!-- 120 -->
      <g style="fill: #262626" transform="translate(44.506911 169.493896) scale(0.11 -0.11)">
       <use xlink:href="#ArialMT-31"/>
       <use xlink:href="#ArialMT-32" x="55.615234"/>
       <use xlink:href="#ArialMT-30" x="111.230469"/>
      </g>
     </g>
    </g>
    <g id="ytick_6">
     <g id="line2d_14">
      <path d="M 72.358005 129.926756 
L 532.9863 129.926756 
" clip-path="url(#p820448b38d)" style="fill: none; stroke: #cccccc; stroke-linecap: round"/>
     </g>
     <g id="text_15">
      <!-- 130 -->
      <g style="fill: #262626" transform="translate(44.506911 133.863553) scale(0.11 -0.11)">
       <defs>
        <path id="ArialMT-33" d="M 269 1209 
L 831 1284 
Q 928 806 1161 595 
Q 1394 384 1728 384 
Q 2125 384 2398 659 
Q 2672 934 2672 1341 
Q 2672 1728 2419 1979 
Q 2166 2231 1775 2231 
Q 1616 2231 1378 2169 
L 1441 2663 
Q 1497 2656 1531 2656 
Q 1891 2656 2178 2843 
Q 2466 3031 2466 3422 
Q 2466 3731 2256 3934 
Q 2047 4138 1716 4138 
Q 1388 4138 1169 3931 
Q 950 3725 888 3313 
L 325 3413 
Q 428 3978 793 4289 
Q 1159 4600 1703 4600 
Q 2078 4600 2393 4439 
Q 2709 4278 2876 4000 
Q 3044 3722 3044 3409 
Q 3044 3113 2884 2869 
Q 2725 2625 2413 2481 
Q 2819 2388 3044 2092 
Q 3269 1797 3269 1353 
Q 3269 753 2831 336 
Q 2394 -81 1725 -81 
Q 1122 -81 723 278 
Q 325 638 269 1209 
z
" transform="scale(0.015625)"/>
       </defs>
       <use xlink:href="#ArialMT-31"/>
       <use xlink:href="#ArialMT-33" x="55.615234"/>
       <use xlink:href="#ArialMT-30" x="111.230469"/>
      </g>
     </g>
    </g>
    <g id="ytick_7">
     <g id="line2d_15">
      <path d="M 72.358005 94.296413 
L 532.9863 94.296413 
" clip-path="url(#p820448b38d)" style="fill: none; stroke: #cccccc; stroke-linecap: round"/>
     </g>
     <g id="text_16">
      <!-- 140 -->
      <g style="fill: #262626" transform="translate(44.506911 98.23321) scale(0.11 -0.11)">
       <defs>
        <path id="ArialMT-34" d="M 2069 0 
L 2069 1097 
L 81 1097 
L 81 1613 
L 2172 4581 
L 2631 4581 
L 2631 1613 
L 3250 1613 
L 3250 1097 
L 2631 1097 
L 2631 0 
L 2069 0 
z
M 2069 1613 
L 2069 3678 
L 634 1613 
L 2069 1613 
z
" transform="scale(0.015625)"/>
       </defs>
       <use xlink:href="#ArialMT-31"/>
       <use xlink:href="#ArialMT-34" x="55.615234"/>
       <use xlink:href="#ArialMT-30" x="111.230469"/>
      </g>
     </g>
    </g>
    <g id="ytick_8">
     <g id="line2d_16">
      <path d="M 72.358005 58.66607 
L 532.9863 58.66607 
" clip-path="url(#p820448b38d)" style="fill: none; stroke: #cccccc; stroke-linecap: round"/>
     </g>
     <g id="text_17">
      <!-- 150 -->
      <g style="fill: #262626" transform="translate(44.506911 62.602867) scale(0.11 -0.11)">
       <use xlink:href="#ArialMT-31"/>
       <use xlink:href="#ArialMT-35" x="55.615234"/>
       <use xlink:href="#ArialMT-30" x="111.230469"/>
      </g>
     </g>
    </g>
    <g id="ytick_9">
     <g id="line2d_17">
      <path d="M 72.358005 23.035727 
L 532.9863 23.035727 
" clip-path="url(#p820448b38d)" style="fill: none; stroke: #cccccc; stroke-linecap: round"/>
     </g>
     <g id="text_18">
      <!-- 160 -->
      <g style="fill: #262626" transform="translate(44.506911 26.972523) scale(0.11 -0.11)">
       <use xlink:href="#ArialMT-31"/>
       <use xlink:href="#ArialMT-36" x="55.615234"/>
       <use xlink:href="#ArialMT-30" x="111.230469"/>
      </g>
     </g>
    </g>
    <g id="text_19">
     <!-- Benchmark Score -->
     <g style="fill: #262626" transform="translate(38.121911 210.494063) rotate(-90) scale(0.12 -0.12)">
      <defs>
       <path id="ArialMT-42" d="M 469 0 
L 469 4581 
L 2188 4581 
Q 2713 4581 3030 4442 
Q 3347 4303 3526 4014 
Q 3706 3725 3706 3409 
Q 3706 3116 3547 2856 
Q 3388 2597 3066 2438 
Q 3481 2316 3704 2022 
Q 3928 1728 3928 1328 
Q 3928 1006 3792 729 
Q 3656 453 3456 303 
Q 3256 153 2954 76 
Q 2653 0 2216 0 
L 469 0 
z
M 1075 2656 
L 2066 2656 
Q 2469 2656 2644 2709 
Q 2875 2778 2992 2937 
Q 3109 3097 3109 3338 
Q 3109 3566 3000 3739 
Q 2891 3913 2687 3977 
Q 2484 4041 1991 4041 
L 1075 4041 
L 1075 2656 
z
M 1075 541 
L 2216 541 
Q 2509 541 2628 563 
Q 2838 600 2978 687 
Q 3119 775 3209 942 
Q 3300 1109 3300 1328 
Q 3300 1584 3169 1773 
Q 3038 1963 2805 2039 
Q 2572 2116 2134 2116 
L 1075 2116 
L 1075 541 
z
" transform="scale(0.015625)"/>
       <path id="ArialMT-63" d="M 2588 1216 
L 3141 1144 
Q 3050 572 2676 248 
Q 2303 -75 1759 -75 
Q 1078 -75 664 370 
Q 250 816 250 1647 
Q 250 2184 428 2587 
Q 606 2991 970 3192 
Q 1334 3394 1763 3394 
Q 2303 3394 2647 3120 
Q 2991 2847 3088 2344 
L 2541 2259 
Q 2463 2594 2264 2762 
Q 2066 2931 1784 2931 
Q 1359 2931 1093 2626 
Q 828 2322 828 1663 
Q 828 994 1084 691 
Q 1341 388 1753 388 
Q 2084 388 2306 591 
Q 2528 794 2588 1216 
z
" transform="scale(0.015625)"/>
       <path id="ArialMT-68" d="M 422 0 
L 422 4581 
L 984 4581 
L 984 2938 
Q 1378 3394 1978 3394 
Q 2347 3394 2619 3248 
Q 2891 3103 3008 2847 
Q 3125 2591 3125 2103 
L 3125 0 
L 2563 0 
L 2563 2103 
Q 2563 2525 2380 2717 
Q 2197 2909 1863 2909 
Q 1613 2909 1392 2779 
Q 1172 2650 1078 2428 
Q 984 2206 984 1816 
L 984 0 
L 422 0 
z
" transform="scale(0.015625)"/>
       <path id="ArialMT-61" d="M 2588 409 
Q 2275 144 1986 34 
Q 1697 -75 1366 -75 
Q 819 -75 525 192 
Q 231 459 231 875 
Q 231 1119 342 1320 
Q 453 1522 633 1644 
Q 813 1766 1038 1828 
Q 1203 1872 1538 1913 
Q 2219 1994 2541 2106 
Q 2544 2222 2544 2253 
Q 2544 2597 2384 2738 
Q 2169 2928 1744 2928 
Q 1347 2928 1158 2789 
Q 969 2650 878 2297 
L 328 2372 
Q 403 2725 575 2942 
Q 747 3159 1072 3276 
Q 1397 3394 1825 3394 
Q 2250 3394 2515 3294 
Q 2781 3194 2906 3042 
Q 3031 2891 3081 2659 
Q 3109 2516 3109 2141 
L 3109 1391 
Q 3109 606 3145 398 
Q 3181 191 3288 0 
L 2700 0 
Q 2613 175 2588 409 
z
M 2541 1666 
Q 2234 1541 1622 1453 
Q 1275 1403 1131 1340 
Q 988 1278 909 1158 
Q 831 1038 831 891 
Q 831 666 1001 516 
Q 1172 366 1500 366 
Q 1825 366 2078 508 
Q 2331 650 2450 897 
Q 2541 1088 2541 1459 
L 2541 1666 
z
" transform="scale(0.015625)"/>
       <path id="ArialMT-6b" d="M 425 0 
L 425 4581 
L 988 4581 
L 988 1969 
L 2319 3319 
L 3047 3319 
L 1778 2088 
L 3175 0 
L 2481 0 
L 1384 1697 
L 988 1316 
L 988 0 
L 425 0 
z
" transform="scale(0.015625)"/>
       <path id="ArialMT-53" d="M 288 1472 
L 859 1522 
Q 900 1178 1048 958 
Q 1197 738 1509 602 
Q 1822 466 2213 466 
Q 2559 466 2825 569 
Q 3091 672 3220 851 
Q 3350 1031 3350 1244 
Q 3350 1459 3225 1620 
Q 3100 1781 2813 1891 
Q 2628 1963 1997 2114 
Q 1366 2266 1113 2400 
Q 784 2572 623 2826 
Q 463 3081 463 3397 
Q 463 3744 659 4045 
Q 856 4347 1234 4503 
Q 1613 4659 2075 4659 
Q 2584 4659 2973 4495 
Q 3363 4331 3572 4012 
Q 3781 3694 3797 3291 
L 3216 3247 
Q 3169 3681 2898 3903 
Q 2628 4125 2100 4125 
Q 1550 4125 1298 3923 
Q 1047 3722 1047 3438 
Q 1047 3191 1225 3031 
Q 1400 2872 2139 2705 
Q 2878 2538 3153 2413 
Q 3553 2228 3743 1945 
Q 3934 1663 3934 1294 
Q 3934 928 3725 604 
Q 3516 281 3123 101 
Q 2731 -78 2241 -78 
Q 1619 -78 1198 103 
Q 778 284 539 648 
Q 300 1013 288 1472 
z
" transform="scale(0.015625)"/>
      </defs>
      <use xlink:href="#ArialMT-42"/>
      <use xlink:href="#ArialMT-65" x="66.699219"/>
      <use xlink:href="#ArialMT-6e" x="122.314453"/>
      <use xlink:href="#ArialMT-63" x="177.929688"/>
      <use xlink:href="#ArialMT-68" x="227.929688"/>
      <use xlink:href="#ArialMT-6d" x="283.544922"/>
      <use xlink:href="#ArialMT-61" x="366.845703"/>
      <use xlink:href="#ArialMT-72" x="422.460938"/>
      <use xlink:href="#ArialMT-6b" x="455.761719"/>
      <use xlink:href="#ArialMT-20" x="505.761719"/>
      <use xlink:href="#ArialMT-53" x="533.544922"/>
      <use xlink:href="#ArialMT-63" x="600.244141"/>
      <use xlink:href="#ArialMT-6f" x="650.244141"/>
      <use xlink:href="#ArialMT-72" x="705.859375"/>
      <use xlink:href="#ArialMT-65" x="739.160156"/>
     </g>
    </g>
   </g>
   <g id="PathCollection_1">
    <path d="M 196.197223 89.537906 
C 196.992832 89.537906 197.755962 89.221807 198.318543 88.659226 
C 198.881124 88.096645 199.197223 87.333515 199.197223 86.537906 
C 199.197223 85.742296 198.881124 84.979166 198.318543 84.416585 
C 197.755962 83.854005 196.992832 83.537906 196.197223 83.537906 
C 195.401613 83.537906 194.638483 83.854005 194.075902 84.416585 
C 193.513322 84.979166 193.197223 85.742296 193.197223 86.537906 
C 193.197223 87.333515 193.513322 88.096645 194.075902 88.659226 
C 194.638483 89.221807 195.401613 89.537906 196.197223 89.537906 
z
" clip-path="url(#p820448b38d)" style="fill: #55a868; stroke: #ffffff; stroke-width: 0.48"/>
    <path d="M 107.534598 230.192249 
C 108.330208 230.192249 109.093338 229.87615 109.655919 229.313569 
C 110.218499 228.750988 110.534598 227.987858 110.534598 227.192249 
C 110.534598 226.396639 110.218499 225.633509 109.655919 225.070928 
C 109.093338 224.508348 108.330208 224.192249 107.534598 224.192249 
C 106.738989 224.192249 105.975859 224.508348 105.413278 225.070928 
C 104.850697 225.633509 104.534598 226.396639 104.534598 227.192249 
C 104.534598 227.987858 104.850697 228.750988 105.413278 229.313569 
C 105.975859 229.87615 106.738989 230.192249 107.534598 230.192249 
z
" clip-path="url(#p820448b38d)" style="fill: #dd8452; stroke: #ffffff; stroke-width: 0.48"/>
    <path d="M 135.348844 290.906354 
C 136.144453 290.906354 136.907583 290.590255 137.470164 290.027674 
C 138.032745 289.465093 138.348844 288.701963 138.348844 287.906354 
C 138.348844 287.110744 138.032745 286.347614 137.470164 285.785033 
C 136.907583 285.222452 136.144453 284.906354 135.348844 284.906354 
C 134.553234 284.906354 133.790104 285.222452 133.227523 285.785033 
C 132.664943 286.347614 132.348844 287.110744 132.348844 287.906354 
C 132.348844 288.701963 132.664943 289.465093 133.227523 290.027674 
C 133.790104 290.590255 134.553234 290.906354 135.348844 290.906354 
z
" clip-path="url(#p820448b38d)" style="fill: #4c72b0; stroke: #ffffff; stroke-width: 0.48"/>
    <path d="M 154.714238 105.728334 
C 155.509847 105.728334 156.272978 105.412235 156.835559 104.849654 
C 157.398139 104.287073 157.714238 103.523943 157.714238 102.728334 
C 157.714238 101.932724 157.398139 101.169594 156.835559 100.607013 
C 156.272978 100.044433 155.509847 99.728334 154.714238 99.728334 
C 153.918629 99.728334 153.155499 100.044433 152.592918 100.607013 
C 152.030337 101.169594 151.714238 101.932724 151.714238 102.728334 
C 151.714238 103.523943 152.030337 104.287073 152.592918 104.849654 
C 153.155499 105.412235 153.918629 105.728334 154.714238 105.728334 
z
" clip-path="url(#p820448b38d)" style="fill: #55a868; stroke: #ffffff; stroke-width: 0.48"/>
    <path d="M 108.261729 228.547908 
C 109.057338 228.547908 109.820469 228.231809 110.383049 227.669229 
C 110.94563 227.106648 111.261729 226.343518 111.261729 225.547908 
C 111.261729 224.752299 110.94563 223.989169 110.383049 223.426588 
C 109.820469 222.864007 109.057338 222.547908 108.261729 222.547908 
C 107.46612 222.547908 106.702989 222.864007 106.140409 223.426588 
C 105.577828 223.989169 105.261729 224.752299 105.261729 225.547908 
C 105.261729 226.343518 105.577828 227.106648 106.140409 227.669229 
C 106.702989 228.231809 107.46612 228.547908 108.261729 228.547908 
z
" clip-path="url(#p820448b38d)" style="fill: #dd8452; stroke: #ffffff; stroke-width: 0.48"/>
    <path d="M 106.813457 228.547908 
C 107.609066 228.547908 108.372197 228.231809 108.934777 227.669229 
C 109.497358 227.106648 109.813457 226.343518 109.813457 225.547908 
C 109.813457 224.752299 109.497358 223.989169 108.934777 223.426588 
C 108.372197 222.864007 107.609066 222.547908 106.813457 222.547908 
C 106.017848 222.547908 105.254718 222.864007 104.692137 223.426588 
C 104.129556 223.989169 103.813457 224.752299 103.813457 225.547908 
C 103.813457 226.343518 104.129556 227.106648 104.692137 227.669229 
C 105.254718 228.231809 106.017848 228.547908 106.813457 228.547908 
z
" clip-path="url(#p820448b38d)" style="fill: #dd8452; stroke: #ffffff; stroke-width: 0.48"/>
    <path d="M 151.290016 103.325067 
C 152.085625 103.325067 152.848755 103.008968 153.411336 102.446387 
C 153.973917 101.883807 154.290016 101.120676 154.290016 100.325067 
C 154.290016 99.529458 153.973917 98.766327 153.411336 98.203747 
C 152.848755 97.641166 152.085625 97.325067 151.290016 97.325067 
C 150.494406 97.325067 149.731276 97.641166 149.168695 98.203747 
C 148.606115 98.766327 148.290016 99.529458 148.290016 100.325067 
C 148.290016 101.120676 148.606115 101.883807 149.168695 102.446387 
C 149.731276 103.008968 150.494406 103.325067 151.290016 103.325067 
z
" clip-path="url(#p820448b38d)" style="fill: #55a868; stroke: #ffffff; stroke-width: 0.48"/>
    <path d="M 151.962043 103.325067 
C 152.757652 103.325067 153.520782 103.008968 154.083363 102.446387 
C 154.645944 101.883807 154.962043 101.120676 154.962043 100.325067 
C 154.962043 99.529458 154.645944 98.766327 154.083363 98.203747 
C 153.520782 97.641166 152.757652 97.325067 151.962043 97.325067 
C 151.166433 97.325067 150.403303 97.641166 149.840722 98.203747 
C 149.278142 98.766327 148.962043 99.529458 148.962043 100.325067 
C 148.962043 101.120676 149.278142 101.883807 149.840722 102.446387 
C 150.403303 103.008968 151.166433 103.325067 151.962043 103.325067 
z
" clip-path="url(#p820448b38d)" style="fill: #55a868; stroke: #ffffff; stroke-width: 0.48"/>
    <path d="M 134.222211 290.653378 
C 135.01782 290.653378 135.78095 290.337279 136.343531 289.774698 
C 136.906112 289.212118 137.222211 288.448987 137.222211 287.653378 
C 137.222211 286.857769 136.906112 286.094638 136.343531 285.532058 
C 135.78095 284.969477 135.01782 284.653378 134.222211 284.653378 
C 133.426601 284.653378 132.663471 284.969477 132.10089 285.532058 
C 131.538309 286.094638 131.222211 286.857769 131.222211 287.653378 
C 131.222211 288.448987 131.538309 289.212118 132.10089 289.774698 
C 132.663471 290.337279 133.426601 290.653378 134.222211 290.653378 
z
" clip-path="url(#p820448b38d)" style="fill: #4c72b0; stroke: #ffffff; stroke-width: 0.48"/>
    <path d="M 134.337809 290.653378 
C 135.133418 290.653378 135.896548 290.337279 136.459129 289.774698 
C 137.02171 289.212118 137.337809 288.448987 137.337809 287.653378 
C 137.337809 286.857769 137.02171 286.094638 136.459129 285.532058 
C 135.896548 284.969477 135.133418 284.653378 134.337809 284.653378 
C 133.542199 284.653378 132.779069 284.969477 132.216488 285.532058 
C 131.653908 286.094638 131.337809 286.857769 131.337809 287.653378 
C 131.337809 288.448987 131.653908 289.212118 132.216488 289.774698 
C 132.779069 290.337279 133.542199 290.653378 134.337809 290.653378 
z
" clip-path="url(#p820448b38d)" style="fill: #4c72b0; stroke: #ffffff; stroke-width: 0.48"/>
    <path d="M 140.087771 292.424206 
C 140.88338 292.424206 141.646511 292.108107 142.209092 291.545526 
C 142.771672 290.982946 143.087771 290.219815 143.087771 289.424206 
C 143.087771 288.628597 142.771672 287.865467 142.209092 287.302886 
C 141.646511 286.740305 140.88338 286.424206 140.087771 286.424206 
C 139.292162 286.424206 138.529032 286.740305 137.966451 287.302886 
C 137.40387 287.865467 137.087771 288.628597 137.087771 289.424206 
C 137.087771 290.219815 137.40387 290.982946 137.966451 291.545526 
C 138.529032 292.108107 139.292162 292.424206 140.087771 292.424206 
z
" clip-path="url(#p820448b38d)" style="fill: #4c72b0; stroke: #ffffff; stroke-width: 0.48"/>
    <path d="M 105.858724 229.812786 
C 106.654333 229.812786 107.417463 229.496687 107.980044 228.934106 
C 108.542625 228.371525 108.858724 227.608395 108.858724 226.812786 
C 108.858724 226.017176 108.542625 225.254046 107.980044 224.691465 
C 107.417463 224.128884 106.654333 223.812786 105.858724 223.812786 
C 105.063114 223.812786 104.299984 224.128884 103.737403 224.691465 
C 103.174823 225.254046 102.858724 226.017176 102.858724 226.812786 
C 102.858724 227.608395 103.174823 228.371525 103.737403 228.934106 
C 104.299984 229.496687 105.063114 229.812786 105.858724 229.812786 
z
" clip-path="url(#p820448b38d)" style="fill: #dd8452; stroke: #ffffff; stroke-width: 0.48"/>
    <path d="M 155.019705 109.649453 
C 155.815314 109.649453 156.578445 109.333354 157.141025 108.770773 
C 157.703606 108.208193 158.019705 107.445062 158.019705 106.649453 
C 158.019705 105.853844 157.703606 105.090713 157.141025 104.528133 
C 156.578445 103.965552 155.815314 103.649453 155.019705 103.649453 
C 154.224096 103.649453 153.460965 103.965552 152.898385 104.528133 
C 152.335804 105.090713 152.019705 105.853844 152.019705 106.649453 
C 152.019705 107.445062 152.335804 108.208193 152.898385 108.770773 
C 153.460965 109.333354 154.224096 109.649453 155.019705 109.649453 
z
" clip-path="url(#p820448b38d)" style="fill: #55a868; stroke: #ffffff; stroke-width: 0.48"/>
    <path d="M 104.36553 230.445224 
C 105.16114 230.445224 105.92427 230.129125 106.486851 229.566544 
C 107.049431 229.003964 107.36553 228.240833 107.36553 227.445224 
C 107.36553 226.649615 107.049431 225.886484 106.486851 225.323904 
C 105.92427 224.761323 105.16114 224.445224 104.36553 224.445224 
C 103.569921 224.445224 102.806791 224.761323 102.24421 225.323904 
C 101.681629 225.886484 101.36553 226.649615 101.36553 227.445224 
C 101.36553 228.240833 101.681629 229.003964 102.24421 229.566544 
C 102.806791 230.129125 103.569921 230.445224 104.36553 230.445224 
z
" clip-path="url(#p820448b38d)" style="fill: #dd8452; stroke: #ffffff; stroke-width: 0.48"/>
    <path d="M 133.141098 290.779866 
C 133.936707 290.779866 134.699837 290.463767 135.262418 289.901186 
C 135.824999 289.338605 136.141098 288.575475 136.141098 287.779866 
C 136.141098 286.984256 135.824999 286.221126 135.262418 285.658545 
C 134.699837 285.095965 133.936707 284.779866 133.141098 284.779866 
C 132.345488 284.779866 131.582358 285.095965 131.019777 285.658545 
C 130.457197 286.221126 130.141098 286.984256 130.141098 287.779866 
C 130.141098 288.575475 130.457197 289.338605 131.019777 289.901186 
C 131.582358 290.463767 132.345488 290.779866 133.141098 290.779866 
z
" clip-path="url(#p820448b38d)" style="fill: #4c72b0; stroke: #ffffff; stroke-width: 0.48"/>
    <path d="M 177.019301 112.05272 
C 177.81491 112.05272 178.578041 111.736621 179.140621 111.17404 
C 179.703202 110.611459 180.019301 109.848329 180.019301 109.05272 
C 180.019301 108.25711 179.703202 107.49398 179.140621 106.931399 
C 178.578041 106.368819 177.81491 106.05272 177.019301 106.05272 
C 176.223692 106.05272 175.460561 106.368819 174.897981 106.931399 
C 174.3354 107.49398 174.019301 108.25711 174.019301 109.05272 
C 174.019301 109.848329 174.3354 110.611459 174.897981 111.17404 
C 175.460561 111.736621 176.223692 112.05272 177.019301 112.05272 
z
" clip-path="url(#p820448b38d)" style="fill: #55a868; stroke: #ffffff; stroke-width: 0.48"/>
    <path d="M 94.378564 243.726435 
C 95.174174 243.726435 95.937304 243.410336 96.499885 242.847755 
C 97.062465 242.285174 97.378564 241.522044 97.378564 240.726435 
C 97.378564 239.930825 97.062465 239.167695 96.499885 238.605114 
C 95.937304 238.042533 95.174174 237.726435 94.378564 237.726435 
C 93.582955 237.726435 92.819825 238.042533 92.257244 238.605114 
C 91.694663 239.167695 91.378564 239.930825 91.378564 240.726435 
C 91.378564 241.522044 91.694663 242.285174 92.257244 242.847755 
C 92.819825 243.410336 93.582955 243.726435 94.378564 243.726435 
z
" clip-path="url(#p820448b38d)" style="fill: #dd8452; stroke: #ffffff; stroke-width: 0.48"/>
    <path d="M 93.295655 242.082094 
C 94.091264 242.082094 94.854394 241.765995 95.416975 241.203415 
C 95.979556 240.640834 96.295655 239.877704 96.295655 239.082094 
C 96.295655 238.286485 95.979556 237.523355 95.416975 236.960774 
C 94.854394 236.398193 94.091264 236.082094 93.295655 236.082094 
C 92.500045 236.082094 91.736915 236.398193 91.174334 236.960774 
C 90.611754 237.523355 90.295655 238.286485 90.295655 239.082094 
C 90.295655 239.877704 90.611754 240.640834 91.174334 241.203415 
C 91.736915 241.765995 92.500045 242.082094 93.295655 242.082094 
z
" clip-path="url(#p820448b38d)" style="fill: #dd8452; stroke: #ffffff; stroke-width: 0.48"/>
    <path d="M 147.904725 110.281892 
C 148.700335 110.281892 149.463465 109.965793 150.026046 109.403212 
C 150.588626 108.840631 150.904725 108.077501 150.904725 107.281892 
C 150.904725 106.486282 150.588626 105.723152 150.026046 105.160571 
C 149.463465 104.597991 148.700335 104.281892 147.904725 104.281892 
C 147.109116 104.281892 146.345986 104.597991 145.783405 105.160571 
C 145.220824 105.723152 144.904725 106.486282 144.904725 107.281892 
C 144.904725 108.077501 145.220824 108.840631 145.783405 109.403212 
C 146.345986 109.965793 147.109116 110.281892 147.904725 110.281892 
z
" clip-path="url(#p820448b38d)" style="fill: #55a868; stroke: #ffffff; stroke-width: 0.48"/>
    <path d="M 93.780808 241.19668 
C 94.576417 241.19668 95.339547 240.880581 95.902128 240.318001 
C 96.464709 239.75542 96.780808 238.992289 96.780808 238.19668 
C 96.780808 237.401071 96.464709 236.637941 95.902128 236.07536 
C 95.339547 235.512779 94.576417 235.19668 93.780808 235.19668 
C 92.985199 235.19668 92.222068 235.512779 91.659488 236.07536 
C 91.096907 236.637941 90.780808 237.401071 90.780808 238.19668 
C 90.780808 238.992289 91.096907 239.75542 91.659488 240.318001 
C 92.222068 240.880581 92.985199 241.19668 93.780808 241.19668 
z
" clip-path="url(#p820448b38d)" style="fill: #dd8452; stroke: #ffffff; stroke-width: 0.48"/>
    <path d="M 146.674473 107.878625 
C 147.470082 107.878625 148.233213 107.562526 148.795793 106.999945 
C 149.358374 106.437365 149.674473 105.674234 149.674473 104.878625 
C 149.674473 104.083016 149.358374 103.319885 148.795793 102.757305 
C 148.233213 102.194724 147.470082 101.878625 146.674473 101.878625 
C 145.878864 101.878625 145.115733 102.194724 144.553153 102.757305 
C 143.990572 103.319885 143.674473 104.083016 143.674473 104.878625 
C 143.674473 105.674234 143.990572 106.437365 144.553153 106.999945 
C 145.115733 107.562526 145.878864 107.878625 146.674473 107.878625 
z
" clip-path="url(#p820448b38d)" style="fill: #55a868; stroke: #ffffff; stroke-width: 0.48"/>
    <path d="M 393.080511 86.881664 
L 394.580511 85.381664 
L 396.080511 86.881664 
L 397.580511 85.381664 
L 396.080511 83.881664 
L 397.580511 82.381664 
L 396.080511 80.881664 
L 394.580511 82.381664 
L 393.080511 80.881664 
L 391.580511 82.381664 
L 393.080511 83.881664 
L 391.580511 85.381664 
z
" clip-path="url(#p820448b38d)" style="fill: #55a868; stroke: #ffffff; stroke-width: 0.48"/>
    <path d="M 405.615429 239.678828 
L 407.115429 238.178828 
L 408.615429 239.678828 
L 410.115429 238.178828 
L 408.615429 236.678828 
L 410.115429 235.178828 
L 408.615429 233.678828 
L 407.115429 235.178828 
L 405.615429 233.678828 
L 404.115429 235.178828 
L 405.615429 236.678828 
L 404.115429 238.178828 
z
" clip-path="url(#p820448b38d)" style="fill: #dd8452; stroke: #ffffff; stroke-width: 0.48"/>
    <path d="M 510.54865 91.435222 
L 512.04865 89.935222 
L 513.54865 91.435222 
L 515.04865 89.935222 
L 513.54865 88.435222 
L 515.04865 86.935222 
L 513.54865 85.435222 
L 512.04865 86.935222 
L 510.54865 85.435222 
L 509.04865 86.935222 
L 510.54865 88.435222 
L 509.04865 89.935222 
z
" clip-path="url(#p820448b38d)" style="fill: #55a868; stroke: #ffffff; stroke-width: 0.48"/>
    <path d="M 448.431686 301.784297 
L 449.931686 300.284297 
L 451.431686 301.784297 
L 452.931686 300.284297 
L 451.431686 298.784297 
L 452.931686 297.284297 
L 451.431686 295.784297 
L 449.931686 297.284297 
L 448.431686 295.784297 
L 446.931686 297.284297 
L 448.431686 298.784297 
L 446.931686 300.284297 
z
" clip-path="url(#p820448b38d)" style="fill: #4c72b0; stroke: #ffffff; stroke-width: 0.48"/>
    <path d="M 399.991846 86.502201 
L 401.491846 85.002201 
L 402.991846 86.502201 
L 404.491846 85.002201 
L 402.991846 83.502201 
L 404.491846 82.002201 
L 402.991846 80.502201 
L 401.491846 82.002201 
L 399.991846 80.502201 
L 398.491846 82.002201 
L 399.991846 83.502201 
L 398.491846 85.002201 
z
" clip-path="url(#p820448b38d)" style="fill: #55a868; stroke: #ffffff; stroke-width: 0.48"/>
    <path d="M 397.548711 240.184778 
L 399.048711 238.684778 
L 400.548711 240.184778 
L 402.048711 238.684778 
L 400.548711 237.184778 
L 402.048711 235.684778 
L 400.548711 234.184778 
L 399.048711 235.684778 
L 397.548711 234.184778 
L 396.048711 235.684778 
L 397.548711 237.184778 
L 396.048711 238.684778 
z
" clip-path="url(#p820448b38d)" style="fill: #dd8452; stroke: #ffffff; stroke-width: 0.48"/>
    <path d="M 309.489234 237.781512 
L 310.989234 236.281512 
L 312.489234 237.781512 
L 313.989234 236.281512 
L 312.489234 234.781512 
L 313.989234 233.281512 
L 312.489234 231.781512 
L 310.989234 233.281512 
L 309.489234 231.781512 
L 307.989234 233.281512 
L 309.489234 234.781512 
L 307.989234 236.281512 
z
" clip-path="url(#p820448b38d)" style="fill: #dd8452; stroke: #ffffff; stroke-width: 0.48"/>
    <path d="M 440.65007 301.151859 
L 442.15007 299.651859 
L 443.65007 301.151859 
L 445.15007 299.651859 
L 443.65007 298.151859 
L 445.15007 296.651859 
L 443.65007 295.151859 
L 442.15007 296.651859 
L 440.65007 295.151859 
L 439.15007 296.651859 
L 440.65007 298.151859 
L 439.15007 299.651859 
z
" clip-path="url(#p820448b38d)" style="fill: #4c72b0; stroke: #ffffff; stroke-width: 0.48"/>
    <path d="M 504.283587 93.20605 
L 505.783587 91.70605 
L 507.283587 93.20605 
L 508.783587 91.70605 
L 507.283587 90.20605 
L 508.783587 88.70605 
L 507.283587 87.20605 
L 505.783587 88.70605 
L 504.283587 87.20605 
L 502.783587 88.70605 
L 504.283587 90.20605 
L 502.783587 91.70605 
z
" clip-path="url(#p820448b38d)" style="fill: #55a868; stroke: #ffffff; stroke-width: 0.48"/>
    <path d="M 400.587806 83.21352 
L 402.087806 81.71352 
L 403.587806 83.21352 
L 405.087806 81.71352 
L 403.587806 80.21352 
L 405.087806 78.71352 
L 403.587806 77.21352 
L 402.087806 78.71352 
L 400.587806 77.21352 
L 399.087806 78.71352 
L 400.587806 80.21352 
L 399.087806 81.71352 
z
" clip-path="url(#p820448b38d)" style="fill: #55a868; stroke: #ffffff; stroke-width: 0.48"/>
    <path d="M 343.835077 300.013469 
L 345.335077 298.513469 
L 346.835077 300.013469 
L 348.335077 298.513469 
L 346.835077 297.013469 
L 348.335077 295.513469 
L 346.835077 294.013469 
L 345.335077 295.513469 
L 343.835077 294.013469 
L 342.335077 295.513469 
L 343.835077 297.013469 
L 342.335077 298.513469 
z
" clip-path="url(#p820448b38d)" style="fill: #4c72b0; stroke: #ffffff; stroke-width: 0.48"/>
    <path d="M 450.327377 302.037273 
L 451.827377 300.537273 
L 453.327377 302.037273 
L 454.827377 300.537273 
L 453.327377 299.037273 
L 454.827377 297.537273 
L 453.327377 296.037273 
L 451.827377 297.537273 
L 450.327377 296.037273 
L 448.827377 297.537273 
L 450.327377 299.037273 
L 448.827377 300.537273 
z
" clip-path="url(#p820448b38d)" style="fill: #4c72b0; stroke: #ffffff; stroke-width: 0.48"/>
    <path d="M 437.797849 301.531322 
L 439.297849 300.031322 
L 440.797849 301.531322 
L 442.297849 300.031322 
L 440.797849 298.531322 
L 442.297849 297.031322 
L 440.797849 295.531322 
L 439.297849 297.031322 
L 437.797849 295.531322 
L 436.297849 297.031322 
L 437.797849 298.531322 
L 436.297849 300.031322 
z
" clip-path="url(#p820448b38d)" style="fill: #4c72b0; stroke: #ffffff; stroke-width: 0.48"/>
    <path d="M 404.703221 239.678828 
L 406.203221 238.178828 
L 407.703221 239.678828 
L 409.203221 238.178828 
L 407.703221 236.678828 
L 409.203221 235.178828 
L 407.703221 233.678828 
L 406.203221 235.178828 
L 404.703221 233.678828 
L 403.203221 235.178828 
L 404.703221 236.678828 
L 403.203221 238.178828 
z
" clip-path="url(#p820448b38d)" style="fill: #dd8452; stroke: #ffffff; stroke-width: 0.48"/>
    <path d="M 505.131706 91.561709 
L 506.631706 90.061709 
L 508.131706 91.561709 
L 509.631706 90.061709 
L 508.131706 88.561709 
L 509.631706 87.061709 
L 508.131706 85.561709 
L 506.631706 87.061709 
L 505.131706 85.561709 
L 503.631706 87.061709 
L 505.131706 88.561709 
L 503.631706 90.061709 
z
" clip-path="url(#p820448b38d)" style="fill: #55a868; stroke: #ffffff; stroke-width: 0.48"/>
    <path d="M 307.887629 236.896098 
L 309.387629 235.396098 
L 310.887629 236.896098 
L 312.387629 235.396098 
L 310.887629 233.896098 
L 312.387629 232.396098 
L 310.887629 230.896098 
L 309.387629 232.396098 
L 307.887629 230.896098 
L 306.387629 232.396098 
L 307.887629 233.896098 
L 306.387629 235.396098 
z
" clip-path="url(#p820448b38d)" style="fill: #dd8452; stroke: #ffffff; stroke-width: 0.48"/>
    <path d="M 342.035219 298.748592 
L 343.535219 297.248592 
L 345.035219 298.748592 
L 346.535219 297.248592 
L 345.035219 295.748592 
L 346.535219 294.248592 
L 345.035219 292.748592 
L 343.535219 294.248592 
L 342.035219 292.748592 
L 340.535219 294.248592 
L 342.035219 295.748592 
L 340.535219 297.248592 
z
" clip-path="url(#p820448b38d)" style="fill: #4c72b0; stroke: #ffffff; stroke-width: 0.48"/>
    <path d="M 404.886297 26.105747 
L 404.886297 30.348388 
L 409.128938 30.348388 
L 409.128938 26.105747 
z
" clip-path="url(#p820448b38d)" style="fill: #55a868; stroke: #ffffff; stroke-width: 0.48"/>
    <path d="M 307.49511 187.504076 
L 307.49511 191.746717 
L 311.73775 191.746717 
L 311.73775 187.504076 
z
" clip-path="url(#p820448b38d)" style="fill: #dd8452; stroke: #ffffff; stroke-width: 0.48"/>
    <path d="M 309.224291 188.38949 
L 309.224291 192.632131 
L 313.466932 192.632131 
L 313.466932 188.38949 
z
" clip-path="url(#p820448b38d)" style="fill: #dd8452; stroke: #ffffff; stroke-width: 0.48"/>
    <path d="M 403.450004 24.461407 
L 403.450004 28.704048 
L 407.692645 28.704048 
L 407.692645 24.461407 
z
" clip-path="url(#p820448b38d)" style="fill: #55a868; stroke: #ffffff; stroke-width: 0.48"/>
    <path d="M 349.233249 257.831247 
L 349.233249 262.073888 
L 353.475889 262.073888 
L 353.475889 257.831247 
z
" clip-path="url(#p820448b38d)" style="fill: #4c72b0; stroke: #ffffff; stroke-width: 0.48"/>
    <path d="M 349.953192 258.337198 
L 349.953192 262.579839 
L 354.195833 262.579839 
L 354.195833 258.337198 
z
" clip-path="url(#p820448b38d)" style="fill: #4c72b0; stroke: #ffffff; stroke-width: 0.48"/>
    <path d="M 351.24873 257.70476 
L 351.24873 261.9474 
L 355.491371 261.9474 
L 355.491371 257.70476 
z
" clip-path="url(#p820448b38d)" style="fill: #4c72b0; stroke: #ffffff; stroke-width: 0.48"/>
    <path d="M 310.048452 188.642465 
L 310.048452 192.885106 
L 314.291093 192.885106 
L 314.291093 188.642465 
z
" clip-path="url(#p820448b38d)" style="fill: #dd8452; stroke: #ffffff; stroke-width: 0.48"/>
    <path d="M 404.139401 25.473309 
L 404.139401 29.715949 
L 408.382041 29.715949 
L 408.382041 25.473309 
z
" clip-path="url(#p820448b38d)" style="fill: #55a868; stroke: #ffffff; stroke-width: 0.48"/>
   </g>
   <g id="PathCollection_2"/>
   <g id="PathCollection_3"/>
   <g id="PathCollection_4"/>
   <g id="PathCollection_5"/>
   <g id="PathCollection_6"/>
   <g id="PathCollection_7"/>
   <g id="patch_3">
    <path d="M 72.358005 312.66 
L 72.358005 12.96 
" style="fill: none; stroke: #cccccc; stroke-width: 1.25; stroke-linejoin: miter; stroke-linecap: square"/>
   </g>
   <g id="patch_4">
    <path d="M 72.358005 312.66 
L 532.9863 312.66 
" style="fill: none; stroke: #cccccc; stroke-width: 1.25; stroke-linejoin: miter; stroke-linecap: square"/>
   </g>
  </g>
  <g id="legend_1">
   <g id="text_20">
    <!-- CPU frequency, GHz -->
    <g style="fill: #262626" transform="translate(547.828906 128.043047) scale(0.12 -0.12)">
     <defs>
      <path id="ArialMT-55" d="M 3500 4581 
L 4106 4581 
L 4106 1934 
Q 4106 1244 3950 837 
Q 3794 431 3386 176 
Q 2978 -78 2316 -78 
Q 1672 -78 1262 144 
Q 853 366 678 786 
Q 503 1206 503 1934 
L 503 4581 
L 1109 4581 
L 1109 1938 
Q 1109 1341 1220 1058 
Q 1331 775 1601 622 
Q 1872 469 2263 469 
Q 2931 469 3215 772 
Q 3500 1075 3500 1938 
L 3500 4581 
z
" transform="scale(0.015625)"/>
      <path id="ArialMT-66" d="M 556 0 
L 556 2881 
L 59 2881 
L 59 3319 
L 556 3319 
L 556 3672 
Q 556 4006 616 4169 
Q 697 4388 901 4523 
Q 1106 4659 1475 4659 
Q 1713 4659 2000 4603 
L 1916 4113 
Q 1741 4144 1584 4144 
Q 1328 4144 1222 4034 
Q 1116 3925 1116 3625 
L 1116 3319 
L 1763 3319 
L 1763 2881 
L 1116 2881 
L 1116 0 
L 556 0 
z
" transform="scale(0.015625)"/>
      <path id="ArialMT-71" d="M 2538 -1272 
L 2538 353 
Q 2406 169 2170 47 
Q 1934 -75 1669 -75 
Q 1078 -75 651 397 
Q 225 869 225 1691 
Q 225 2191 398 2587 
Q 572 2984 901 3189 
Q 1231 3394 1625 3394 
Q 2241 3394 2594 2875 
L 2594 3319 
L 3100 3319 
L 3100 -1272 
L 2538 -1272 
z
M 803 1669 
Q 803 1028 1072 708 
Q 1341 388 1716 388 
Q 2075 388 2334 692 
Q 2594 997 2594 1619 
Q 2594 2281 2320 2615 
Q 2047 2950 1678 2950 
Q 1313 2950 1058 2639 
Q 803 2328 803 1669 
z
" transform="scale(0.015625)"/>
      <path id="ArialMT-79" d="M 397 -1278 
L 334 -750 
Q 519 -800 656 -800 
Q 844 -800 956 -737 
Q 1069 -675 1141 -563 
Q 1194 -478 1313 -144 
Q 1328 -97 1363 -6 
L 103 3319 
L 709 3319 
L 1400 1397 
Q 1534 1031 1641 628 
Q 1738 1016 1872 1384 
L 2581 3319 
L 3144 3319 
L 1881 -56 
Q 1678 -603 1566 -809 
Q 1416 -1088 1222 -1217 
Q 1028 -1347 759 -1347 
Q 597 -1347 397 -1278 
z
" transform="scale(0.015625)"/>
      <path id="ArialMT-47" d="M 2638 1797 
L 2638 2334 
L 4578 2338 
L 4578 638 
Q 4131 281 3656 101 
Q 3181 -78 2681 -78 
Q 2006 -78 1454 211 
Q 903 500 622 1047 
Q 341 1594 341 2269 
Q 341 2938 620 3517 
Q 900 4097 1425 4378 
Q 1950 4659 2634 4659 
Q 3131 4659 3532 4498 
Q 3934 4338 4162 4050 
Q 4391 3763 4509 3300 
L 3963 3150 
Q 3859 3500 3706 3700 
Q 3553 3900 3268 4020 
Q 2984 4141 2638 4141 
Q 2222 4141 1919 4014 
Q 1616 3888 1430 3681 
Q 1244 3475 1141 3228 
Q 966 2803 966 2306 
Q 966 1694 1177 1281 
Q 1388 869 1791 669 
Q 2194 469 2647 469 
Q 3041 469 3416 620 
Q 3791 772 3984 944 
L 3984 1797 
L 2638 1797 
z
" transform="scale(0.015625)"/>
      <path id="ArialMT-48" d="M 513 0 
L 513 4581 
L 1119 4581 
L 1119 2700 
L 3500 2700 
L 3500 4581 
L 4106 4581 
L 4106 0 
L 3500 0 
L 3500 2159 
L 1119 2159 
L 1119 0 
L 513 0 
z
" transform="scale(0.015625)"/>
      <path id="ArialMT-7a" d="M 125 0 
L 125 456 
L 2238 2881 
Q 1878 2863 1603 2863 
L 250 2863 
L 250 3319 
L 2963 3319 
L 2963 2947 
L 1166 841 
L 819 456 
Q 1197 484 1528 484 
L 3063 484 
L 3063 0 
L 125 0 
z
" transform="scale(0.015625)"/>
     </defs>
     <use xlink:href="#ArialMT-43"/>
     <use xlink:href="#ArialMT-50" x="72.216797"/>
     <use xlink:href="#ArialMT-55" x="138.916016"/>
     <use xlink:href="#ArialMT-20" x="211.132812"/>
     <use xlink:href="#ArialMT-66" x="238.916016"/>
     <use xlink:href="#ArialMT-72" x="266.699219"/>
     <use xlink:href="#ArialMT-65" x="300"/>
     <use xlink:href="#ArialMT-71" x="355.615234"/>
     <use xlink:href="#ArialMT-75" x="411.230469"/>
     <use xlink:href="#ArialMT-65" x="466.845703"/>
     <use xlink:href="#ArialMT-6e" x="522.460938"/>
     <use xlink:href="#ArialMT-63" x="578.076172"/>
     <use xlink:href="#ArialMT-79" x="628.076172"/>
     <use xlink:href="#ArialMT-2c" x="670.701172"/>
     <use xlink:href="#ArialMT-20" x="698.484375"/>
     <use xlink:href="#ArialMT-47" x="726.267578"/>
     <use xlink:href="#ArialMT-48" x="804.050781"/>
     <use xlink:href="#ArialMT-7a" x="876.267578"/>
    </g>
   </g>
   <g id="PathCollection_8">
    <defs>
     <path id="m0b8545b6e9" d="M 0 3 
C 0.795609 3 1.55874 2.683901 2.12132 2.12132 
C 2.683901 1.55874 3 0.795609 3 0 
C 3 -0.795609 2.683901 -1.55874 2.12132 -2.12132 
C 1.55874 -2.683901 0.795609 -3 0 -3 
C -0.795609 -3 -1.55874 -2.683901 -2.12132 -2.12132 
C -2.683901 -1.55874 -3 -0.795609 -3 0 
C -3 0.795609 -2.683901 1.55874 -2.12132 2.12132 
C -1.55874 2.683901 -0.795609 3 0 3 
z
" style="stroke: #4c72b0"/>
    </defs>
    <g>
     <use xlink:href="#m0b8545b6e9" x="550.028906" y="141.054766" style="fill: #4c72b0; stroke: #4c72b0"/>
    </g>
   </g>
   <g id="text_21">
    <!-- 1.4 -->
    <g style="fill: #262626" transform="translate(569.828906 143.942266) scale(0.11 -0.11)">
     <defs>
      <path id="ArialMT-2e" d="M 581 0 
L 581 641 
L 1222 641 
L 1222 0 
L 581 0 
z
" transform="scale(0.015625)"/>
     </defs>
     <use xlink:href="#ArialMT-31"/>
     <use xlink:href="#ArialMT-2e" x="55.615234"/>
     <use xlink:href="#ArialMT-34" x="83.398438"/>
    </g>
   </g>
   <g id="PathCollection_9">
    <defs>
     <path id="mdbf7fbed6b" d="M 0 3 
C 0.795609 3 1.55874 2.683901 2.12132 2.12132 
C 2.683901 1.55874 3 0.795609 3 0 
C 3 -0.795609 2.683901 -1.55874 2.12132 -2.12132 
C 1.55874 -2.683901 0.795609 -3 0 -3 
C -0.795609 -3 -1.55874 -2.683901 -2.12132 -2.12132 
C -2.683901 -1.55874 -3 -0.795609 -3 0 
C -3 0.795609 -2.683901 1.55874 -2.12132 2.12132 
C -1.55874 2.683901 -0.795609 3 0 3 
z
" style="stroke: #dd8452"/>
    </defs>
    <g>
     <use xlink:href="#mdbf7fbed6b" x="550.028906" y="156.614609" style="fill: #dd8452; stroke: #dd8452"/>
    </g>
   </g>
   <g id="text_22">
    <!-- 1.7 -->
    <g style="fill: #262626" transform="translate(569.828906 159.502109) scale(0.11 -0.11)">
     <use xlink:href="#ArialMT-31"/>
     <use xlink:href="#ArialMT-2e" x="55.615234"/>
     <use xlink:href="#ArialMT-37" x="83.398438"/>
    </g>
   </g>
   <g id="PathCollection_10">
    <defs>
     <path id="mb85568efdd" d="M 0 3 
C 0.795609 3 1.55874 2.683901 2.12132 2.12132 
C 2.683901 1.55874 3 0.795609 3 0 
C 3 -0.795609 2.683901 -1.55874 2.12132 -2.12132 
C 1.55874 -2.683901 0.795609 -3 0 -3 
C -0.795609 -3 -1.55874 -2.683901 -2.12132 -2.12132 
C -2.683901 -1.55874 -3 -0.795609 -3 0 
C -3 0.795609 -2.683901 1.55874 -2.12132 2.12132 
C -1.55874 2.683901 -0.795609 3 0 3 
z
" style="stroke: #55a868"/>
    </defs>
    <g>
     <use xlink:href="#mb85568efdd" x="550.028906" y="172.174453" style="fill: #55a868; stroke: #55a868"/>
    </g>
   </g>
   <g id="text_23">
    <!-- 2.1 -->
    <g style="fill: #262626" transform="translate(569.828906 175.061953) scale(0.11 -0.11)">
     <use xlink:href="#ArialMT-32"/>
     <use xlink:href="#ArialMT-2e" x="55.615234"/>
     <use xlink:href="#ArialMT-31" x="83.398438"/>
    </g>
   </g>
   <g id="text_24">
    <!-- workload -->
    <g style="fill: #262626" transform="translate(547.828906 191.337578) scale(0.12 -0.12)">
     <defs>
      <path id="ArialMT-64" d="M 2575 0 
L 2575 419 
Q 2259 -75 1647 -75 
Q 1250 -75 917 144 
Q 584 363 401 755 
Q 219 1147 219 1656 
Q 219 2153 384 2558 
Q 550 2963 881 3178 
Q 1213 3394 1622 3394 
Q 1922 3394 2156 3267 
Q 2391 3141 2538 2938 
L 2538 4581 
L 3097 4581 
L 3097 0 
L 2575 0 
z
M 797 1656 
Q 797 1019 1065 703 
Q 1334 388 1700 388 
Q 2069 388 2326 689 
Q 2584 991 2584 1609 
Q 2584 2291 2321 2609 
Q 2059 2928 1675 2928 
Q 1300 2928 1048 2622 
Q 797 2316 797 1656 
z
" transform="scale(0.015625)"/>
     </defs>
     <use xlink:href="#ArialMT-77"/>
     <use xlink:href="#ArialMT-6f" x="72.216797"/>
     <use xlink:href="#ArialMT-72" x="127.832031"/>
     <use xlink:href="#ArialMT-6b" x="161.132812"/>
     <use xlink:href="#ArialMT-6c" x="211.132812"/>
     <use xlink:href="#ArialMT-6f" x="233.349609"/>
     <use xlink:href="#ArialMT-61" x="288.964844"/>
     <use xlink:href="#ArialMT-64" x="344.580078"/>
    </g>
   </g>
   <g id="PathCollection_11">
    <defs>
     <path id="m299c105f29" d="M 0 3 
C 0.795609 3 1.55874 2.683901 2.12132 2.12132 
C 2.683901 1.55874 3 0.795609 3 0 
C 3 -0.795609 2.683901 -1.55874 2.12132 -2.12132 
C 1.55874 -2.683901 0.795609 -3 0 -3 
C -0.795609 -3 -1.55874 -2.683901 -2.12132 -2.12132 
C -2.683901 -1.55874 -3 -0.795609 -3 0 
C -3 0.795609 -2.683901 1.55874 -2.12132 2.12132 
C -1.55874 2.683901 -0.795609 3 0 3 
z
" style="stroke: #333333"/>
    </defs>
    <g>
     <use xlink:href="#m299c105f29" x="550.028906" y="204.241328" style="fill: #333333; stroke: #333333"/>
    </g>
   </g>
   <g id="text_25">
    <!-- belle2-gen-sim-reco-bmk -->
    <g style="fill: #262626" transform="translate(569.828906 207.128828) scale(0.11 -0.11)">
     <defs>
      <path id="ArialMT-62" d="M 941 0 
L 419 0 
L 419 4581 
L 981 4581 
L 981 2947 
Q 1338 3394 1891 3394 
Q 2197 3394 2470 3270 
Q 2744 3147 2920 2923 
Q 3097 2700 3197 2384 
Q 3297 2069 3297 1709 
Q 3297 856 2875 390 
Q 2453 -75 1863 -75 
Q 1275 -75 941 416 
L 941 0 
z
M 934 1684 
Q 934 1088 1097 822 
Q 1363 388 1816 388 
Q 2184 388 2453 708 
Q 2722 1028 2722 1663 
Q 2722 2313 2464 2622 
Q 2206 2931 1841 2931 
Q 1472 2931 1203 2611 
Q 934 2291 934 1684 
z
" transform="scale(0.015625)"/>
      <path id="ArialMT-2d" d="M 203 1375 
L 203 1941 
L 1931 1941 
L 1931 1375 
L 203 1375 
z
" transform="scale(0.015625)"/>
      <path id="ArialMT-67" d="M 319 -275 
L 866 -356 
Q 900 -609 1056 -725 
Q 1266 -881 1628 -881 
Q 2019 -881 2231 -725 
Q 2444 -569 2519 -288 
Q 2563 -116 2559 434 
Q 2191 0 1641 0 
Q 956 0 581 494 
Q 206 988 206 1678 
Q 206 2153 378 2554 
Q 550 2956 876 3175 
Q 1203 3394 1644 3394 
Q 2231 3394 2613 2919 
L 2613 3319 
L 3131 3319 
L 3131 450 
Q 3131 -325 2973 -648 
Q 2816 -972 2473 -1159 
Q 2131 -1347 1631 -1347 
Q 1038 -1347 672 -1080 
Q 306 -813 319 -275 
z
M 784 1719 
Q 784 1066 1043 766 
Q 1303 466 1694 466 
Q 2081 466 2343 764 
Q 2606 1063 2606 1700 
Q 2606 2309 2336 2618 
Q 2066 2928 1684 2928 
Q 1309 2928 1046 2623 
Q 784 2319 784 1719 
z
" transform="scale(0.015625)"/>
     </defs>
     <use xlink:href="#ArialMT-62"/>
     <use xlink:href="#ArialMT-65" x="55.615234"/>
     <use xlink:href="#ArialMT-6c" x="111.230469"/>
     <use xlink:href="#ArialMT-6c" x="133.447266"/>
     <use xlink:href="#ArialMT-65" x="155.664062"/>
     <use xlink:href="#ArialMT-32" x="211.279297"/>
     <use xlink:href="#ArialMT-2d" x="266.894531"/>
     <use xlink:href="#ArialMT-67" x="300.195312"/>
     <use xlink:href="#ArialMT-65" x="355.810547"/>
     <use xlink:href="#ArialMT-6e" x="411.425781"/>
     <use xlink:href="#ArialMT-2d" x="467.041016"/>
     <use xlink:href="#ArialMT-73" x="500.341797"/>
     <use xlink:href="#ArialMT-69" x="550.341797"/>
     <use xlink:href="#ArialMT-6d" x="572.558594"/>
     <use xlink:href="#ArialMT-2d" x="655.859375"/>
     <use xlink:href="#ArialMT-72" x="689.160156"/>
     <use xlink:href="#ArialMT-65" x="722.460938"/>
     <use xlink:href="#ArialMT-63" x="778.076172"/>
     <use xlink:href="#ArialMT-6f" x="828.076172"/>
     <use xlink:href="#ArialMT-2d" x="883.691406"/>
     <use xlink:href="#ArialMT-62" x="916.992188"/>
     <use xlink:href="#ArialMT-6d" x="972.607422"/>
     <use xlink:href="#ArialMT-6b" x="1055.908203"/>
    </g>
   </g>
   <g id="PathCollection_12">
    <defs>
     <path id="mcd67977684" d="M -1.5 3 
L 0 1.5 
L 1.5 3 
L 3 1.5 
L 1.5 0 
L 3 -1.5 
L 1.5 -3 
L 0 -1.5 
L -1.5 -3 
L -3 -1.5 
L -1.5 0 
L -3 1.5 
z
" style="stroke: #333333"/>
    </defs>
    <g>
     <use xlink:href="#mcd67977684" x="550.028906" y="219.930078" style="fill: #333333; stroke: #333333"/>
    </g>
   </g>
   <g id="text_26">
    <!-- atlas-gen-bmk -->
    <g style="fill: #262626" transform="translate(569.828906 222.817578) scale(0.11 -0.11)">
     <use xlink:href="#ArialMT-61"/>
     <use xlink:href="#ArialMT-74" x="55.615234"/>
     <use xlink:href="#ArialMT-6c" x="83.398438"/>
     <use xlink:href="#ArialMT-61" x="105.615234"/>
     <use xlink:href="#ArialMT-73" x="161.230469"/>
     <use xlink:href="#ArialMT-2d" x="211.230469"/>
     <use xlink:href="#ArialMT-67" x="244.53125"/>
     <use xlink:href="#ArialMT-65" x="300.146484"/>
     <use xlink:href="#ArialMT-6e" x="355.761719"/>
     <use xlink:href="#ArialMT-2d" x="411.376953"/>
     <use xlink:href="#ArialMT-62" x="444.677734"/>
     <use xlink:href="#ArialMT-6d" x="500.292969"/>
     <use xlink:href="#ArialMT-6b" x="583.59375"/>
    </g>
   </g>
   <g id="PathCollection_13">
    <defs>
     <path id="md94158bd0f" d="M -2.12132 -2.12132 
L -2.12132 2.12132 
L 2.12132 2.12132 
L 2.12132 -2.12132 
z
" style="stroke: #333333"/>
    </defs>
    <g>
     <use xlink:href="#md94158bd0f" x="550.028906" y="235.618828" style="fill: #333333; stroke: #333333"/>
    </g>
   </g>
   <g id="text_27">
    <!-- cms-reco-bmk -->
    <g style="fill: #262626" transform="translate(569.828906 238.506328) scale(0.11 -0.11)">
     <use xlink:href="#ArialMT-63"/>
     <use xlink:href="#ArialMT-6d" x="50"/>
     <use xlink:href="#ArialMT-73" x="133.300781"/>
     <use xlink:href="#ArialMT-2d" x="183.300781"/>
     <use xlink:href="#ArialMT-72" x="216.601562"/>
     <use xlink:href="#ArialMT-65" x="249.902344"/>
     <use xlink:href="#ArialMT-63" x="305.517578"/>
     <use xlink:href="#ArialMT-6f" x="355.517578"/>
     <use xlink:href="#ArialMT-2d" x="411.132812"/>
     <use xlink:href="#ArialMT-62" x="444.433594"/>
     <use xlink:href="#ArialMT-6d" x="500.048828"/>
     <use xlink:href="#ArialMT-6b" x="583.349609"/>
    </g>
   </g>
  </g>
 </g>
 <defs>
  <clipPath id="p820448b38d">
   <rect x="72.358005" y="12.96" width="460.628295" height="299.7"/>
  </clipPath>
 </defs>
</svg>
